PathFileType	3	(X/Y/Z)	squats_1__view2_aligned.trc
DataRate	CameraRate	NumFrames	NumMarkers	Units	OrigDataRate	OrigDataStartFrame	OrigNumFrames
100.0	100.0	7	19	mm	100.0	745	1660
Frame#	Time	pelvis			neck			head			hip_left			hip_right			knee_left			knee_right			ankle_left			ankle_right			heel_left			heel_right			toe_left			toe_right			shoulder_left			shoulder_right			elbow_left			elbow_right			wrist_left			wrist_right			
		X1	Y1	Z1	X2	Y2	Z2	X3	Y3	Z3	X4	Y4	Z4	X5	Y5	Z5	X6	Y6	Z6	X7	Y7	Z7	X8	Y8	Z8	X9	Y9	Z9	X10	Y10	Z10	X11	Y11	Z11	X12	Y12	Z12	X13	Y13	Z13	X14	Y14	Z14	X15	Y15	Z15	X16	Y16	Z16	X17	Y17	Z17	X18	Y18	Z18	X19	Y19	Z19	
745	7.44000	123.767612	970.933314	49.791038	62.493203	1527.676205	28.003746	33.731837	1657.887833	-81.205922	50.553067	960.807175	56.701085	196.982066	981.059509	42.880976	14.182282	537.901789	24.222830	246.906693	560.442159	1.290486	6.840368	147.624112	102.469930	289.675964	170.899437	71.386565	9.790266	102.237974	138.018873	291.253896	125.019946	106.894195	10.029730	81.966123	-75.551393	292.012890	106.745669	-106.691986	-93.673205	1464.980406	79.408045	239.012804	1481.168948	38.995602	-142.858728	1183.472914	118.059660	345.040570	1205.861807	27.072386	-82.993571	1110.826171	-122.751615	323.752533	1058.633133	-182.994999
746	7.45000	124.132419	970.955531	49.022929	63.333354	1527.895909	26.955003	34.255952	1657.948176	-82.463008	50.899557	960.864288	55.810887	197.365142	981.046831	42.234948	14.091502	537.859243	23.514936	247.721094	560.322362	0.699062	6.295263	147.640118	102.250978	290.613580	170.864288	71.511508	9.175302	102.310439	137.871926	292.147500	125.026289	107.098487	9.789578	81.611880	-75.682494	293.551433	106.506442	-106.499794	-92.916798	1465.314551	78.254149	239.930527	1480.997018	38.218353	-142.397818	1184.037818	116.716074	345.514983	1205.749847	26.461961	-83.444462	1111.951608	-123.974863	324.557294	1058.855309	-183.436789
747	7.46000	124.497226	970.977748	48.254820	64.173505	1528.115613	25.906259	34.780067	1658.008519	-83.720095	51.246048	960.921400	54.920690	197.748218	981.034153	41.588920	14.000722	537.816698	22.807042	248.535496	560.202564	0.107639	5.750158	147.656124	102.032026	291.551195	170.829139	71.636451	8.560338	102.382904	137.724979	293.041105	125.032631	107.302779	9.549426	81.257637	-75.813595	295.089975	106.267215	-106.307602	-92.160391	1465.648695	77.100253	240.848251	1480.825088	37.441104	-141.936907	1184.602723	115.372488	345.989396	1205.637887	25.851537	-83.895352	1113.077046	-125.198112	325.362055	1059.077486	-183.878579
748	7.47000	124.862032	970.999966	47.486710	65.013656	1528.335316	24.857516	35.304183	1658.068861	-84.977182	51.592539	960.978512	54.030492	198.131295	981.021476	40.942891	13.909942	537.774152	22.099148	249.349897	560.082767	-0.483785	5.205052	147.672130	101.813074	292.488811	170.793990	71.761394	7.945373	102.455369	137.578032	293.934709	125.038974	107.507070	9.309275	80.903394	-75.944696	296.628517	106.027987	-106.115410	-91.403984	1465.982840	75.946357	241.765974	1480.653159	36.663855	-141.475996	1185.167628	114.028901	346.463810	1205.525927	25.241113	-84.346243	1114.202483	-126.421360	326.166816	1059.299663	-184.320369
749	7.48000	125.226839	971.022183	46.718601	65.853807	1528.555020	23.808773	35.828298	1658.129204	-86.234269	51.939030	961.035624	53.140295	198.514371	981.008798	40.296863	13.819162	537.731606	21.391255	250.164299	559.962969	-1.075209	4.659947	147.688136	101.594122	293.426426	170.758841	71.886337	7.330409	102.527833	137.431086	294.828313	125.045317	107.711362	9.069123	80.549151	-76.075797	298.167060	105.788760	-105.923218	-90.647577	1466.316985	74.792460	242.683697	1480.481229	35.886607	-141.015085	1185.732532	112.685315	346.938223	1205.413966	24.630689	-84.797133	1115.327920	-127.644608	326.971577	1059.521839	-184.762159
750	7.49000	125.591646	971.044401	45.950492	66.693958	1528.774724	22.760029	36.352413	1658.189547	-87.491355	52.285520	961.092737	52.250097	198.897448	980.996120	39.650835	13.728382	537.689060	20.683361	250.978700	559.843172	-1.666633	4.114841	147.704142	101.375170	294.364042	170.723692	72.011279	6.715445	102.600298	137.284139	295.721917	125.051659	107.915654	8.828972	80.194908	-76.206898	299.705602	105.549533	-105.731026	-89.891170	1466.651130	73.638564	243.601420	1480.309299	35.109358	-140.554175	1186.297437	111.341729	347.412636	1205.302006	24.020264	-85.248024	1116.453357	-128.867857	327.776338	1059.744016	-185.203949
751	7.50000	125.956452	971.066618	45.182382	67.534109	1528.994427	21.711286	36.876528	1658.249889	-88.748442	52.632011	961.149849	51.359900	199.280524	980.983442	39.004807	13.637602	537.646515	19.975467	251.793102	559.723374	-2.258056	3.569736	147.720148	101.156218	295.301657	170.688543	72.136222	6.100480	102.672763	137.137192	296.615522	125.058002	108.119945	8.588820	79.840665	-76.338000	301.244145	105.310306	-105.538833	-89.134763	1466.985275	72.484668	244.519143	1480.137370	34.332109	-140.093264	1186.862342	109.998142	347.887050	1205.190046	23.409840	-85.698915	1117.578794	-130.091105	328.581099	1059.966192	-185.645739
